<?xml version="1.0" encoding="utf-8" ?>
<svg xmlns="http://www.w3.org/2000/svg" xmlns:xlink="http://www.w3.org/1999/xlink" width="48" height="48">
	<path transform="scale(0.0474381 0.0463051)" d="M610.088 295.25L610.491 296.016C606.402 311.306 598.916 322.354 589.651 334.941C578.835 349.636 566.512 363.239 553.846 376.353C551.364 374.992 549.114 372.501 547.071 370.556L536.662 360.87L529.62 368.481C527.812 370.33 525.539 372.213 524.709 374.724C523.989 376.904 524.042 379.754 523.861 382.05C520.671 381.772 517.489 381.097 514.281 381.066C509.867 381.022 505.362 381.996 501.028 382.772C500.967 380.9 501.329 377.593 500.804 375.906C500.378 374.537 498.54 372.427 497.643 371.331L489.388 361.466C487.059 362.564 484.773 364.895 482.763 366.516L470.092 376.772C464.646 372.076 459.87 366.663 455.058 361.336C444.661 349.828 435.463 337.924 427.24 324.76C425.387 322.088 423.035 318.751 422.148 315.612C425.233 319.193 427.725 323.335 430.865 326.971C442.711 340.688 455.879 352.719 470.001 364.062L511.967 327.239L552.816 364.042L553.341 363.841C556.282 362.046 559.209 358.958 561.884 356.718C581.428 340.35 600.53 319.143 610.088 295.25ZM504.151 345.194L502.096 345.586L501.393 362.582L504.988 358.178C507.901 354.246 510.971 350.134 512.593 345.468L504.151 345.194ZM514.153 345.25C513.362 346.473 513.23 346.536 513.599 348.027C514.835 353.018 520.07 358.952 523.53 362.72L522.349 345.511C519.513 345.087 517.008 345.057 514.153 345.25Z"/>
	<path transform="scale(0.0474381 0.0463051)" d="M380.643 63.4482C381.081 67.0858 381.41 70.3047 383.22 73.5785C391.702 88.919 412.193 95.914 428.176 100.412C435.714 95.1677 444.388 90.7438 453.042 87.6526C467.104 82.63 481.382 80.3558 496.213 79.2985C520.741 77.5501 544.958 79.6816 568.431 87.228C574.881 89.3018 581.264 91.6831 587.408 94.5464C589.992 95.7505 593.39 98.4228 595.997 99.0556C598.712 99.7147 613.817 93.7487 617.09 92.3251C629.774 86.8083 641.014 78.9837 646.185 65.6467L646.432 64.9868C652.8 73.2079 650.496 82.6427 651.499 92C651.686 93.7442 651.904 94.3559 653.25 95.4613C657.302 94.5882 659.771 91.7511 662.736 89.0405C663.637 95.0982 662.159 103.076 660.02 108.75L659.589 109.905C654.66 122.049 644.48 126.624 633.233 131.602C638.67 131.601 643.031 131.109 648.298 129.852C644.496 135.295 639.816 139.774 634.067 143.14C632.225 144.219 629.902 145.076 628.342 146.512L637.48 159.965C646.07 175.467 647.467 193.313 642.509 210.25C637.717 226.62 624.458 239.788 609.795 247.806L605.979 249.778L611.882 286.75C610.468 286.4 606.775 289.231 605.502 290.025C586.566 301.832 566.451 310.17 545.094 316.584L512.518 325.445C493.648 319.98 474.486 315.482 456.148 308.313C440.806 302.316 426.597 294.452 413.654 284.281L418.727 249.84C418.137 249.026 416.587 248.575 415.649 248.126C413.508 247.101 411.455 245.924 409.422 244.699C406.741 243.083 404.29 241.276 401.909 239.243C389.429 228.59 380.722 213.315 379.613 196.75C378.65 182.352 382.731 167.951 391.004 156.126C393.597 152.419 396.871 149.107 399.884 145.739C391.14 141.264 384.865 136.94 377.852 130.018L393.686 131.069C384.004 128.303 376.677 125.38 370.151 117.333C363.965 109.706 363.018 100.612 364.047 91.1712C366.999 94.4746 369.568 96.4382 373.479 98.4065C374.075 94.8202 373.643 91.5368 373.567 87.9625C373.369 78.5809 375.707 71.2731 380.643 63.4482ZM577.223 140.67C562.664 142.91 550.868 148.014 541.899 160.242C534.902 169.781 531.002 183.781 532.939 195.477C535.425 210.495 542.228 222.735 554.696 231.681C564.543 238.747 577.141 241.796 589.125 240.441C603.255 237.548 615.762 231.36 623.907 218.99C627.029 214.25 629.154 209.161 630.797 203.748C634.454 191.696 632.492 178.893 626.515 167.97C620.065 156.181 608.802 146.339 595.828 142.468C589.923 140.707 583.352 139.84 577.223 140.67ZM440.436 140.695C425.444 142.807 412.499 148.169 403.089 160.612C395.193 171.052 391.108 184.398 393.141 197.411C395.17 210.406 403.475 223.509 414.234 231.06C423.962 237.887 433.439 240.084 445.125 239.961C458.966 238.371 472.259 231.416 480.961 220.391C488.945 210.275 493.041 195.708 491.235 182.891C490.179 175.4 487.258 168.005 483.054 161.75L482.552 160.993C476.013 151.364 463.487 143.296 451.985 141.26C448.728 140.683 443.693 139.945 440.436 140.695ZM507.844 206.611C498.057 208.607 490.528 211.514 484.585 219.822C486.687 225.111 510.468 270.664 512.425 271.75L513.972 269.318L529.033 240.069C532.287 233.842 536.52 227.266 538.935 220.708C532.695 212.551 526.458 208.127 516.078 206.675C513.5 206.315 510.431 206.248 507.844 206.611Z"/>
	<path transform="scale(0.0474381 0.0463051)" d="M441.626 154.631C448.937 154.096 457.187 156.528 463.311 160.497C470.08 164.885 475.371 173.466 476.828 181.378L477.031 182.5C477.349 183.841 477.762 185.117 477.884 186.5C478.818 197.048 476.207 206.847 469.256 214.895C463.113 222.007 454.517 225.94 445.223 226.583C436.314 226.184 428.827 224.88 421.433 219.342C414.122 213.866 409.242 206.116 407.999 197C406.611 186.827 408.745 176.635 415.078 168.442C421.422 160.235 431.588 155.976 441.626 154.631ZM443.891 171.643C439.7 172.455 436.032 173.909 433.431 177.495C432.165 179.242 431.41 180.928 430.925 183C430.031 186.815 430.786 189.6 432.889 193.006C434.627 195.822 437.443 198.969 440.75 199.903C442.722 200.46 445.156 200.56 447.208 200.65C452 199.268 456.22 197.128 458.644 192.532C460.543 188.932 460.7 184.82 459.344 181.006C457.984 177.182 455.033 174.601 451.379 173.049C449.361 172.192 446.075 171.26 443.891 171.643Z"/>
	<path transform="scale(0.0474381 0.0463051)" d="M577.549 154.17C581.384 153.765 585.726 154.345 589.447 155.335C598.859 157.837 607.03 163.893 611.879 172.396C616.22 180.007 617.757 190.953 615.294 199.372L615.025 200.25C613.583 205.292 611.437 209.842 608.085 213.917C602.107 221.184 593.415 225.481 584.122 226.344C577.132 226.685 569.242 225.844 563.198 222.036L562.5 221.582C555.09 216.923 549.495 209.36 547.149 200.926L546.897 200L546.148 196.75C544.458 186.321 547.008 175.663 553.264 167.158C559.254 159.014 567.885 155.671 577.549 154.17ZM576.212 172.539C572.149 174.331 568.672 175.958 566.864 180.341C565.504 183.639 565.735 188.298 567.274 191.516C568.948 195.014 572.197 198.257 576.007 199.313C578.085 199.888 581.028 199.468 583.196 199.353C587.792 197.116 591.123 195.094 592.972 190C594.192 186.636 593.807 182.879 592.16 179.751C590.455 176.511 587.127 173.745 583.595 172.72C581.43 172.092 578.429 172.296 576.212 172.539Z"/>
	<path transform="scale(0.0474381 0.0463051)" d="M921.058 147.543C922.923 166.909 925.068 186.918 919.17 205.816C910.846 232.482 888.832 256.264 865.645 270.985C856.771 276.619 847.213 280.927 837.962 285.869C843.232 284.698 848.466 283.784 853.63 282.16C886.242 271.902 913.628 251.186 938.3 228.072C938.797 236.268 938.979 245.317 937.808 253.438C935.775 267.549 933.582 280.41 927.797 293.603C915.951 320.616 893.727 340.563 867.252 352.83C859.375 356.48 851.069 359.101 842.99 362.254C870.747 358.805 897.972 350.513 921.84 335.798C920.625 345.938 918.905 356.785 915.219 366.346C910.618 378.28 904.291 389.17 895.513 398.554C881.411 413.628 862.12 423.027 842.632 428.997L827.883 432.872C824.284 433.677 820.344 434.252 816.971 435.769C821.965 435.338 826.995 435.743 831.989 435.326C854.386 433.455 874.108 428.424 894.837 419.904C892.871 426.234 891.111 432.592 888.559 438.729C883.622 450.602 876.561 461.866 867.755 471.25C844.092 496.464 810.045 500.561 777.244 501.557C794.791 505.991 811.476 506.498 829.359 503.662C835.402 502.704 841.113 501.043 847.044 499.663C845.887 503.822 843.377 508.219 841.254 512.003C833.919 525.075 825.266 536.277 813.167 545.258C794.459 557.797 769.014 560.977 747.066 557.935L746.442 557.843C749.367 559.452 753.561 560.275 756.821 561.144C770.567 564.81 783.887 567.405 798.111 564.998C796.963 567.104 794.771 569.149 793.154 570.959C786.185 578.76 778.141 586.038 768.691 590.702C750.794 599.535 730.339 594.133 712.539 588.026L712.676 588.27C721.037 593.663 731.772 598.576 741.638 600.342C745.128 600.967 748.786 600.955 752.327 601.07C743.854 607.397 735.466 613.201 725.473 616.886C718.238 619.554 709.474 621.582 701.75 620.866C695.087 620.249 688.516 617.648 682.505 614.841C687.089 620.398 690.841 622.941 697.38 625.965L691.763 629.867C684.969 633.73 679.753 635.037 672.126 632.862C664.44 630.67 662.118 626.779 658.53 620.197L660.75 618.288C665.885 613.558 670.225 608.094 674.519 602.611C696.687 574.303 710.085 536.559 711.67 500.671C712.223 488.145 711.07 475.908 709.244 463.526C703.576 425.101 688.341 387.327 664.943 356.227C658.174 347.23 649.343 339.05 641.725 330.709C644.301 328.872 647.168 327.44 649.818 325.7C655.81 321.767 661.684 317.445 667.936 313.936C680.688 306.78 694.148 301.285 707.438 295.267L735.343 281.692L786.978 253.941L810.644 239.95C851.455 213.682 887.714 182.705 921.058 147.543Z"/>
	<path transform="scale(0.0474381 0.0463051)" d="M102.564 147.671C105.893 151.953 109.642 155.758 113.266 159.775C135.61 184.542 163.078 205.105 190.473 223.948L237.685 254.259L321.142 297.25L362.494 316.673C370.235 320.327 379.565 323.85 386.269 329.097L386.657 329.411C391.765 324.725 396.74 319.826 400.521 313.979C405.941 305.598 408.874 295.8 412.453 286.554L415.25 328.979C416.317 343.641 417.493 357.562 420.648 371.948C429.05 410.252 448.118 447.538 472.349 478.191C479.233 486.899 486.378 495.392 494.396 503.082L500.544 385.725C508.597 387.286 516.321 386.839 524.337 385.408L531.401 501.176C534.208 498.788 536.775 495.515 539.181 492.705C572.575 453.714 596.251 403.95 606.303 353.627C609.36 338.319 611.48 323.063 611.583 307.434C611.615 302.732 612.276 297.552 611.889 292.914C611.72 290.898 611.831 288.889 611.901 286.87C612.772 289.301 613.23 291.821 614.074 294.25C617.927 305.342 623.47 316.698 632.143 324.836L641.75 333.055C644.382 335.519 646.739 338.412 649.016 341.204C673.305 370.985 690.048 406.452 698.516 443.834C709.469 492.179 702.845 542.546 678.807 586.006C672.451 597.497 664.205 607.575 657.249 618.642C657.511 621.556 658.889 624.694 659.869 627.448L668.888 649.5C679.223 672.441 691.953 694.085 705.863 715.016C722.603 740.206 741.212 764.338 761.671 786.645L793.182 818.339C786.396 816.736 779.7 814.412 773.076 812.246C729.79 798.091 690.196 773.743 656.628 743.052C641.891 729.579 628.484 714.766 615.541 699.592L611.484 735.5C606.214 777.373 598.22 818.198 587.75 859.077L573.7 906.711C578.54 906.413 584.04 905.935 588.812 906.767L589.5 906.893C593.864 907.617 597.876 908.837 601.839 910.847C616.383 918.221 623.543 932.624 628.257 947.502C617.132 938.185 606.482 929.722 592.2 925.795L591.699 959.249C589.852 957.708 588.338 954.13 587.029 952.034C580.998 942.373 574.245 934.083 564.428 928.071C561.382 930.133 558.414 932.225 555.865 934.898C549.739 941.321 545.655 950.132 541.74 958.005C540.797 956.147 540.431 953.736 539.947 951.706C538.174 944.268 536.622 934.195 538.688 926.79L538.923 926L539.377 924.376C542.159 915.883 551.59 910.711 559.029 907.039L533.185 757.782C530.99 757.49 521.482 761.574 518.483 762.167C514.711 762.914 510.04 762.842 506.246 762.219L505.5 762.087C500.437 761.246 495.521 759.321 490.687 757.635L464.771 906.825L471.025 909.816C477.036 913.057 482.934 918.792 484.831 925.5L485.027 926.25C488.203 936.465 485.308 948.378 483.647 958.621C479.247 949.048 471.653 932.571 461.305 928.646C460.309 928.268 458.876 929.212 457.923 929.694C452.064 932.658 447.298 939.129 443.828 944.519C441.712 947.807 439.794 951.26 437.993 954.729C437.383 955.904 436.364 958.739 435.25 959.242L434.349 956.605C431.511 947.037 431.594 936.617 431.353 926.735C429.038 926.814 426.205 927.791 424.057 928.683C413.407 933.105 405.029 940.644 396.566 948.256L396.599 947.689C398.781 935.673 406.745 921.925 416.142 914.234C425.118 906.887 438.34 905.561 449.568 906.745L450.015 906.797L441.293 878.539L432.909 846.998C420.895 798.44 413.55 748.762 408.803 699.005C401.647 707.599 394.945 716.842 387.25 724.946C344.703 769.757 288.882 800.622 229.83 817.838C232.171 815.536 234.841 813.57 237.25 811.328L256.638 792.191C272.739 775.731 287.972 757.154 301.507 738.541C325.824 705.103 346.353 669.375 362.976 631.527L366.745 622.202C366.906 621.817 367.959 619.763 367.91 619.515C367.746 618.67 365.54 616.118 364.958 615.289L351.536 596.972C348.77 593.012 346.21 588.846 343.836 584.641C333.707 566.705 326.747 545.35 323.595 525.01C314.82 468.384 329.671 408.862 361.03 361.25C365.148 354.997 369.563 348.91 374.409 343.2C378.01 338.956 382.064 334.982 385.365 330.5L384.75 330.037L363.709 351.408C357.61 358.73 352.32 366.755 347.344 374.869C327.353 407.466 315.447 444.351 313.012 482.5C312.625 488.548 312.054 494.978 312.674 501.017L313.925 516.173C314.724 522.492 316.154 528.803 317.603 535L318.63 538.988C324.444 563.723 335.791 585.827 352.169 605.26L366.178 620.404C365.462 622.089 364.645 623.725 363.48 625.15C359.856 629.583 354.593 632.503 348.849 632.975C341.219 633.602 332.288 629.422 326.635 624.536C331.97 621.572 335.42 618.333 339.323 613.611C336.56 614.54 333.849 616.25 331.2 617.513C327.125 619.456 322.815 620.847 318.308 621.26C302.704 622.691 286.229 613.952 274.532 604.186C287 602.158 297.457 597.734 307.579 590.166C298.194 593.379 288.629 596.426 278.58 596.365C257.157 596.234 238.943 581.115 224.922 566.51C238.688 566.637 251.343 564.873 264.664 561.488C266.488 561.025 273.728 559.421 274.498 558.126L264.262 558.972C254.538 559.289 244.374 558.195 235.082 555.252C207.744 546.594 188.23 528.41 175.125 503.165C198.148 507.935 221.763 508.541 244.199 500.402C239.025 500.315 233.865 501.56 228.58 501.466C208.734 501.113 186.983 494.661 170.796 483.015C149.655 467.805 133.794 444.22 128.06 418.746C151.964 433.323 181.975 437.066 209.535 434.768C203.509 433.305 197.319 432.736 191.25 431.432C172.001 427.297 154.235 419.322 138.795 407.065C115.828 388.833 104.123 363.932 100.858 335.146C105.824 338.385 110.74 341.693 116.058 344.338C133.365 352.944 152.418 357.433 171.465 360.018L156.062 353.496C139.654 345.815 123.542 334.887 112.151 320.617C91.8913 295.238 82.3713 259.958 86.0834 227.711C90.2269 232.683 95.6432 237.061 100.572 241.248C119.239 257.103 138.912 269.659 161.475 279.141C169.77 282.627 178.248 285.785 187.156 287.295C158.289 273.885 134.976 256.654 116.205 230.703C98.7124 206.52 98.0363 176.087 102.564 147.671ZM392.202 438.75C386.621 459.028 383.306 479.04 381.817 500C381.1 510.093 380.296 521.185 381.871 531.18L385.498 557.25L385.871 558.4C386.054 552.749 384.948 546.972 384.629 541.307C383.794 526.477 383.248 511.253 384.22 496.407C385.066 483.479 386.878 470.717 389.116 457.963L391.148 446.565C391.664 444.057 392.537 441.296 392.613 438.751L392.202 438.75Z"/>
</svg>
